HIERARCHY
ROOT Hips
{
	OFFSET 0.000000 0.000000 0.000000 
	CHANNELS 6 Xposition Yposition Zposition Zrotation Yrotation Xrotation
	JOINT LeftUpLeg
	{
		OFFSET 1.363060 -1.794630 0.839290 
		CHANNELS 3 Zrotation Yrotation Xrotation
		JOINT LeftLeg
		{
			OFFSET 2.448110 -6.726130 0.000000 
			CHANNELS 3 Zrotation Yrotation Xrotation
			JOINT LeftFoot
			{
				OFFSET 2.562200 -7.039590 0.000000 
				CHANNELS 3 Zrotation Yrotation Xrotation
				JOINT LeftToeBase
				{
					OFFSET 0.157640 -0.433110 2.322550 
					CHANNELS 3 Zrotation Yrotation Xrotation
					End Site
					{
						OFFSET 0.000000 0.000000 0.000000 
					}
				}
			}
		}
	}
	JOINT RightUpLeg
	{
		OFFSET -1.305520 -1.794630 0.839290 
		CHANNELS 3 Zrotation Yrotation Xrotation
		JOINT RightLeg
		{
			OFFSET -2.542530 -6.985550 0.000000 
			CHANNELS 3 Zrotation Yrotation Xrotation
			JOINT RightFoot
			{
				OFFSET -2.568260 -7.056230 0.000000 
				CHANNELS 3 Zrotation Yrotation Xrotation
				JOINT RightToeBase
				{
					OFFSET -0.164730 -0.452590 2.363150 
					CHANNELS 3 Zrotation Yrotation Xrotation
					End Site
					{
						OFFSET 0.000000 0.000000 0.000000 
					}
				}
			}
		}
	}
	JOINT Spine
	{
		OFFSET 0.028270 2.035590 -0.193380 
		CHANNELS 3 Zrotation Yrotation Xrotation
		JOINT Spine1
		{
			OFFSET 0.056720 2.048850 -0.042750 
			CHANNELS 3 Zrotation Yrotation Xrotation
			JOINT Neck1
			{
				OFFSET -0.054170 1.746240 0.172020 
				CHANNELS 3 Zrotation Yrotation Xrotation
				JOINT Head
				{
					OFFSET 0.104070 1.761360 -0.123970 
					CHANNELS 3 Zrotation Yrotation Xrotation
					End Site
					{
						OFFSET 0.000000 0.000000 0.000000 
					}
				}
			}
			JOINT LeftArm
			{
				OFFSET 3.362410 1.200890 -0.311210 
				CHANNELS 3 Zrotation Yrotation Xrotation
				JOINT LeftForeArm
				{
					OFFSET 4.983000 -0.000000 -0.000000 
					CHANNELS 3 Zrotation Yrotation Xrotation
					JOINT LeftHand
					{
						OFFSET 3.483560 -0.000000 -0.000000 
						CHANNELS 3 Zrotation Yrotation Xrotation
						JOINT LeftHandIndex1
						{
							OFFSET 0.715260 -0.000000 -0.000000 
							CHANNELS 3 Zrotation Yrotation Xrotation
							End Site
							{
								OFFSET 0.000000 0.000000 0.000000 
							}
						}
					}
				}
			}
			JOINT RightArm
			{
				OFFSET -3.136600 1.374050 -0.404650 
				CHANNELS 3 Zrotation Yrotation Xrotation
				JOINT RightForeArm
				{
					OFFSET -5.241900 -0.000000 -0.000000 
					CHANNELS 3 Zrotation Yrotation Xrotation
					JOINT RightHand
					{
						OFFSET -3.444170 -0.000000 -0.000000 
						CHANNELS 3 Zrotation Yrotation Xrotation
						JOINT RightHandIndex1
						{
							OFFSET -0.622530 -0.000000 -0.000000 
							CHANNELS 3 Zrotation Yrotation Xrotation
							End Site
							{
								OFFSET 0.000000 0.000000 0.000000 
							}
						}
					}
				}
			}
		}
	}
}
MOTION
Frames: 15
Frame Time: 0.041667
-20.977314 15.887805 -2.145482 166.425961 57.523312 -164.882073 -9.648599 0.702824 3.556049 -0.708909 6.553744 19.319498 -2.167754 13.020622 20.526605 4.703500 -13.041900 -39.525400 27.158459 4.069333 -75.116093 -11.277877 -22.867452 66.261190 0.322330 -2.549576 -3.645108 -1.580700 7.931800 -22.507100 0.342832 -4.947617 -2.028343 4.225909 -2.642020 0.678851 11.742575 -15.073888 -3.732387 13.917400 -2.489700 -5.784400 -63.606250 -45.829312 13.569559 29.227957 -36.574108 -14.991567 -2.755172 -0.848289 -3.242636 -7.125000 0.000000 0.000000 72.593228 4.641410 19.663043 -22.597490 36.271729 -11.387040 2.334890 -1.038364 -19.128491 7.125000 0.000000 0.000000 
-20.500262 15.920741 -2.434494 164.657902 58.373287 -166.558740 -10.913988 -0.709515 6.138899 -0.994506 6.114892 17.923299 -1.751360 13.157514 23.403031 5.440200 -13.863000 -42.691400 29.095520 3.545831 -74.740127 -9.654801 -22.222132 61.987608 0.298824 -2.523239 -2.954349 -1.650100 8.095800 -23.005300 0.380383 -4.437757 -1.982941 5.256174 -2.542110 1.010018 11.233341 -14.956362 -3.495892 13.633300 -2.460700 -5.713700 -65.067138 -44.995315 15.001101 30.805729 -37.949718 -15.995630 -2.551560 -0.660809 -2.682593 -7.125000 0.000000 0.000000 70.853495 4.707026 19.550536 -22.544237 36.190660 -11.374779 2.390396 -0.922550 -21.199973 7.125000 0.000000 0.000000 
-20.038594 15.909914 -2.715871 162.554551 59.019964 -168.702206 -12.429585 -1.684032 8.297127 -1.181523 5.938485 17.682131 -0.790216 11.032236 25.792340 5.468100 -13.892300 -42.807800 30.829770 2.744970 -74.169002 -8.382062 -21.593996 58.551799 0.416096 -2.960889 -1.789213 -1.778100 8.387800 -23.898300 0.212038 -4.585047 -1.991697 3.282652 -2.377950 0.690182 10.877750 -14.683495 -3.624838 13.178100 -2.447000 -5.968800 -64.203229 -42.928677 16.557493 32.837872 -39.634760 -17.292216 -2.357315 -0.851809 -4.058339 -7.125000 0.000000 0.000000 71.746597 4.546563 19.492783 -22.559338 36.293445 -11.432450 2.401316 -0.905026 -21.786175 7.125000 0.000000 0.000000 
-19.584677 15.898062 -2.993031 160.042979 59.813224 -171.141101 -14.234648 -1.884088 9.418725 -1.176913 6.240883 18.983930 0.262002 7.506728 26.983468 5.408900 -13.830000 -42.560700 31.939080 2.031983 -73.277589 -7.373439 -21.022189 55.911521 -0.183702 -0.734429 -0.683211 -1.251100 7.091400 -19.986300 0.144805 -4.327674 -1.957072 3.022203 -2.216055 0.888542 10.494922 -14.550310 -3.578090 12.929700 -2.408600 -6.091600 -64.574673 -41.472430 18.194646 35.260313 -41.485786 -19.055451 -2.189744 -1.051711 -5.952757 -7.125000 0.000000 0.000000 71.069624 4.933841 19.363258 -22.319352 36.099209 -11.312269 2.432666 -0.844759 -22.443096 7.125000 0.000000 0.000000 
-19.114234 15.861024 -3.248082 157.338407 60.208284 -174.289633 -15.829147 -0.979497 9.894832 -0.897413 7.013632 21.844886 1.323609 2.893773 27.482769 5.581400 -14.010000 -43.277700 32.700989 0.902528 -71.794390 -6.700546 -20.515823 54.034869 -0.335602 -0.109705 1.195304 -0.770800 5.606100 -15.645600 0.097648 -4.158660 -1.915813 3.089237 -2.100069 1.024574 10.320791 -14.700104 -3.641145 12.814600 -2.453200 -6.166100 -64.758173 -39.880752 19.520395 38.047370 -43.360142 -21.180122 -1.989589 -1.253859 -8.189620 -7.125000 0.000000 0.000000 70.343158 5.491219 19.313498 -21.925247 35.725453 -11.065221 2.461310 -0.803694 -22.919417 7.125000 0.000000 0.000000 
-18.641170 15.818060 -3.490939 154.963319 60.427854 -177.228502 -17.043158 0.638499 9.609470 -0.310397 8.172772 25.767458 2.039881 -1.003826 27.651469 5.580300 -14.008900 -43.273000 33.347575 -0.335531 -70.090328 -6.306652 -20.125452 52.906724 -0.443359 0.313312 2.712843 -0.212400 2.967300 -8.187600 0.088075 -3.947245 -1.877849 3.609373 -2.007689 1.169013 10.231624 -14.953953 -3.710270 12.814700 -2.504300 -6.158900 -65.142917 -38.509685 20.493523 40.943701 -45.064479 -23.487293 -1.780434 -1.416554 -10.595765 -7.125000 0.000000 0.000000 69.291631 6.279539 19.323576 -21.379418 35.169661 -10.706328 2.503771 -0.771895 -23.236630 7.125000 0.000000 0.000000 
-18.176312 15.786264 -3.728667 153.365058 60.748193 -179.110434 -17.804649 2.421871 8.597549 0.627464 9.617544 30.423849 2.254308 -2.875875 27.422275 5.088400 -13.482600 -41.203100 33.952038 -1.228164 -68.286604 -6.134308 -19.886169 52.381787 -0.401968 0.186210 5.057576 -2.595500 -10.009500 29.007600 0.083099 -3.575846 -1.838895 4.034617 -1.853472 1.404534 10.126105 -15.182572 -3.676663 12.879600 -2.553800 -6.118300 -65.549407 -37.433843 21.445621 43.886478 -46.625919 -25.889703 -1.576289 -1.535995 -12.917308 -7.125000 0.000000 0.000000 68.189116 7.259907 19.145332 -20.819587 34.586291 -10.347667 2.525767 -0.728436 -23.326059 7.125000 0.000000 0.000000 
-17.701311 15.773386 -3.956709 152.699902 60.955073 -179.841701 -17.953231 4.072840 7.026609 1.905000 11.206400 35.702929 2.165958 -3.421492 26.513393 4.521100 -12.823300 -38.710600 34.573870 -1.678685 -66.361058 -6.360525 -19.886817 52.932062 0.025963 -1.713120 -0.491105 -2.467200 -9.778100 28.261000 0.032239 -3.437085 -1.886321 3.346919 -1.674123 1.018208 10.044132 -15.331186 -3.738737 12.867200 -2.645500 -6.165800 -65.194925 -35.728621 22.332561 47.246225 -48.180604 -28.703349 -1.347901 -1.674423 -14.800987 -7.125000 0.000000 0.000000 67.890515 7.789958 18.866021 -20.318916 34.083011 -10.059854 2.498051 -0.791672 -22.869467 7.125000 0.000000 0.000000 
-17.203859 15.770879 -4.173696 152.419389 61.130609 179.821718 -17.804187 5.557522 5.118904 3.502191 12.844761 41.507494 1.879434 -3.110068 24.807267 4.323200 -12.578500 -37.810600 34.074968 -1.551759 -63.939028 -6.597582 -19.908190 53.532693 1.434604 -7.522431 -8.418157 -0.062400 -1.611500 4.433200 0.028518 -3.063086 -1.870693 3.364536 -1.492477 1.250116 9.870914 -15.492453 -3.599721 12.859700 -2.711200 -5.960800 -65.272029 -34.559128 22.964210 51.176400 -49.794057 -32.172316 -1.140531 -1.773235 -16.293641 -7.125000 0.000000 0.000000 66.901417 8.787467 18.348026 -19.647431 33.437940 -9.708391 2.534414 -0.921829 -22.209967 7.125000 0.000000 0.000000 
-16.692960 15.758343 -4.374386 152.486692 60.815699 179.591271 -17.300803 6.369801 3.251604 5.416566 14.439836 47.762204 1.406889 -1.782462 22.803504 4.321800 -12.576700 -37.804000 33.412770 -1.585953 -61.472277 -6.800559 -19.934223 54.128851 1.225284 -7.030313 -9.351360 -0.986700 -6.322300 17.722600 0.047600 -2.838644 -1.859808 3.453050 -1.383237 1.344130 9.759510 -15.760955 -3.602006 12.837300 -2.802000 -5.854100 -65.302680 -33.476341 23.336966 55.332635 -51.241412 -35.953386 -0.941254 -1.837518 -17.495972 -7.125000 0.000000 0.000000 66.209836 9.673696 18.012720 -19.188940 32.938679 -9.454682 2.587015 -0.982506 -22.197793 7.125000 0.000000 0.000000 
-16.190379 15.737145 -4.565845 152.566304 60.465626 179.530993 -16.721819 6.717472 0.924831 7.611249 15.936934 54.433629 0.805227 0.264697 20.757086 4.213200 -12.438800 -37.302500 32.736967 -1.325365 -59.444165 -7.052068 -20.029040 54.996183 0.540633 -5.812402 -13.145899 -0.761600 -5.573200 15.551000 0.066668 -2.675482 -1.882075 3.482302 -1.289618 1.173908 9.813826 -16.281689 -3.794542 12.946500 -2.963500 -5.924200 -65.593527 -32.555421 23.512744 59.290820 -52.414118 -39.620889 -0.745445 -1.857803 -18.153313 -7.125000 0.000000 0.000000 65.751475 10.274855 18.073653 -19.017481 32.667827 -9.315877 2.586074 -0.918642 -23.109830 7.125000 0.000000 0.000000 
-15.711845 15.707287 -4.764256 152.491474 60.517335 179.460385 -16.269221 7.146084 -2.040551 10.027885 17.261200 61.466013 0.149407 2.533023 18.503359 4.285100 -12.530400 -37.635300 32.313270 -0.884387 -57.956987 -7.412813 -20.187620 56.098608 0.351252 -5.958587 -15.497694 -0.621300 -5.044200 14.034800 0.066215 -2.435284 -1.919885 3.426010 -1.142838 0.935731 9.951140 -17.084478 -4.102799 13.146500 -3.203000 -5.932800 -66.112585 -31.614823 23.399401 64.031293 -53.635395 -44.160476 -0.450527 -1.897807 -19.363032 -7.125000 0.000000 0.000000 65.265758 10.795898 18.275139 -19.006852 32.540854 -9.264399 2.536614 -0.831574 -24.191251 7.125000 0.000000 0.000000 
-15.246531 15.661017 -4.963921 153.054113 60.737837 179.904853 -15.408231 7.475629 -5.210735 12.540626 18.304837 68.594493 -0.452497 4.617931 16.308857 4.325500 -12.581300 -37.820900 32.483338 -0.578008 -56.680144 -7.812944 -20.358021 57.334754 0.608683 -7.342104 -17.095184 -0.528000 -4.656500 12.931500 0.043733 -1.951625 -1.935114 3.097256 -0.862402 0.747751 10.086403 -18.020574 -4.430706 13.289300 -3.514700 -5.920700 -66.667267 -30.593724 23.270800 70.689245 -55.150553 -50.637983 -0.013545 -1.926936 -22.647010 -7.125000 0.000000 0.000000 65.156416 11.079243 17.983335 -19.300106 32.731532 -9.450339 2.485111 -0.790428 -24.830557 7.125000 0.000000 0.000000 
-14.791930 15.617027 -5.163243 154.362680 61.034883 -179.107823 -14.170752 7.451449 -8.285565 14.992930 19.031783 75.507495 -0.930425 6.251955 14.284877 3.867700 -11.982200 -35.669100 33.140584 -0.533261 -55.295543 -8.162327 -20.482315 58.453521 0.865977 -8.749582 -18.617906 -0.354300 -3.824400 10.583100 -0.018010 -1.252958 -1.932883 2.133373 -0.424319 0.486788 10.277726 -19.068065 -4.826692 13.347400 -3.920900 -6.026200 -67.216360 -29.501341 23.021280 79.002606 -56.708288 -58.503550 0.309126 -1.854914 -27.726929 -7.125000 0.000000 0.000000 65.594679 11.120313 17.249154 -19.855045 33.188346 -9.843256 2.435661 -0.760347 -25.251907 7.125000 0.000000 0.000000 
-14.336986 15.599705 -5.367011 156.072949 61.646791 -177.950800 -12.782265 7.437095 -11.225778 17.269631 19.462871 81.923348 -1.288155 7.539359 12.608181 3.231000 -11.059900 -32.482300 33.982267 -0.719035 -53.438204 -8.389394 -20.511149 59.195691 0.689834 -8.721159 -19.839395 -0.213800 -2.976600 8.213600 -0.095644 -0.506676 -1.949368 0.869642 0.063729 0.002043 10.498674 -20.213387 -5.312998 13.359900 -4.385100 -6.146700 -68.023767 -28.102336 22.510317 88.910376 -58.004032 -67.333324 0.573111 -1.689044 -34.149726 -7.125000 0.000000 0.000000 66.073085 11.094948 16.710122 -20.449853 33.665763 -10.261878 2.371241 -0.745353 -25.597745 7.125000 0.000000 0.000000 
